<?xml version="1.0" encoding="UTF-8" standalone="no"?>
<!-- Created with Inkscape (http://www.inkscape.org/) -->

<svg
   xmlns:dc="http://purl.org/dc/elements/1.1/"
   xmlns:cc="http://creativecommons.org/ns#"
   xmlns:rdf="http://www.w3.org/1999/02/22-rdf-syntax-ns#"
   xmlns:svg="http://www.w3.org/2000/svg"
   xmlns="http://www.w3.org/2000/svg"
   xmlns:sodipodi="http://sodipodi.sourceforge.net/DTD/sodipodi-0.dtd"
   xmlns:inkscape="http://www.inkscape.org/namespaces/inkscape"
   width="210mm"
   height="297mm"
   viewBox="0 0 210 297"
   version="1.1"
   id="svg4544"
   inkscape:version="0.91 r13725"
   sodipodi:docname="Ledpanel_3mm_10_LEDs_11x11_Nutzen.svg">
  <defs
     id="defs4538" />
  <sodipodi:namedview
     id="base"
     pagecolor="#ffffff"
     bordercolor="#666666"
     borderopacity="1.0"
     inkscape:pageopacity="0.0"
     inkscape:pageshadow="2"
     inkscape:zoom="0.5"
     inkscape:cx="-70.613854"
     inkscape:cy="266.67244"
     inkscape:document-units="mm"
     inkscape:current-layer="layer1"
     showgrid="false"
     inkscape:window-width="1600"
     inkscape:window-height="837"
     inkscape:window-x="-8"
     inkscape:window-y="-8"
     inkscape:window-maximized="1" />
  <metadata
     id="metadata4541">
    <rdf:RDF>
      <cc:Work
         rdf:about="">
        <dc:format>image/svg+xml</dc:format>
        <dc:type
           rdf:resource="http://purl.org/dc/dcmitype/StillImage" />
        <dc:title></dc:title>
      </cc:Work>
    </rdf:RDF>
  </metadata>
  <g
     inkscape:label="Ebene 1"
     inkscape:groupmode="layer"
     id="layer1">
    <path
       style="fill:none;fill-opacity:0.22429905;stroke:#000000;stroke-width:0.05;stroke-miterlimit:4;stroke-dasharray:none;stroke-opacity:1"
       d="m -231.57727,298.29701 h -214.9502 m 0,0 v 13.00026 h 8.37572 l 6.3e-4,3.89998 h 14.02396 l -1.1e-4,-3.89998 h 3.1998 v 11.04995 h 13.50048 v -11.04995 h 3.19981 v 11.04995 h 13.49994 v -11.04995 h 3.19981 v 11.04995 h 13.49995 v -11.04995 h 3.20032 v 11.04995 h 13.49995 v -11.04995 h 3.19979 v 11.04995 h 13.49996 v -11.04995 h 3.20032 v 11.04995 h 13.49996 v -11.04995 h 3.19981 v 11.04995 h 13.49994 v -11.04995 h 3.20033 v 11.04995 h 13.49993 v -11.04995 h 3.19981 v 11.04995 h 13.49996 v -11.04995 h 3.20031 v 11.04995 h 13.49997 v -11.04995 h -5e-5 3.19986 v 3.89998 h 13.50014 v -3.89998 h 8.8499 v -13.00026"
       id="path4690-3"
       inkscape:connector-curvature="0"
       sodipodi:nodetypes="ccccccccccccccccccccccccccccccccccccccccccccccccccccccc" />
    <path
       style="fill:none;fill-opacity:0.22429905;stroke:#ff0000;stroke-width:0.05;stroke-miterlimit:4;stroke-dasharray:none;stroke-opacity:1"
       d="m -407.47765,274.2468 h -13.49996 m 0,0 v 11.04997 h 4e-5 -3.19985 v -3.9 h -13.50015 v 3.9 h -8.8499 v 13.00024 m 214.95019,0 v -13.00024 h -8.37572 l -5.3e-4,-3.9 h -14.02394 l 1.1e-4,3.9 h -3.1998 V 274.2468 h -13.50047 v 11.04997 h -3.19992 V 274.2468 h -13.49995 v 11.04997 h -3.1998 V 274.2468 h -13.49995 v 11.04997 h -3.20032 V 274.2468 h -13.49995 v 11.04997 h -3.19981 V 274.2468 h -13.49994 v 11.04997 h -3.20032 V 274.2468 h -13.49996 v 11.04997 h -3.19981 V 274.2468 h -13.49994 v 11.04997 h -3.20033 V 274.2468 h -13.49994 v 11.04997 h -3.19981 V 274.2468 h -13.49996 v 11.04997 h -3.20031 V 274.2468"
       id="path4690-8-72"
       inkscape:connector-curvature="0"
       sodipodi:nodetypes="ccccccccccccccccccccccccccccccccccccccccccccccccccccccc" />
    <path
       style="fill:none;fill-opacity:0.22429905;stroke:#000000;stroke-width:0.05;stroke-miterlimit:4;stroke-dasharray:none;stroke-opacity:1"
       d="m -446.57761,250.19659 v 13.00024 h 8.37572 l 6.4e-4,3.9 h 14.02395 l -1.1e-4,-3.9 h 3.1998 v 11.04997 m 13.50048,0 v -11.04997 h 3.1998 v 11.04997 m 13.49995,0 v -11.04997 h 3.1998 v 11.04997 m 13.49995,0 v -11.04997 h 3.20032 v 11.04997 m 13.49995,0 v -11.04997 h 3.1998 v 11.04997 m 13.49995,0 v -11.04997 h 3.20032 v 11.04997 m 13.49996,0 v -11.04997 h 3.19981 v 11.04997 m 13.49994,0 v -11.04997 h 3.20033 v 11.04997 m 13.49994,0 v -11.04997 h 3.19981 v 11.04997 m 13.49996,0 v -11.04997 h 3.20031 v 11.04997 m 13.49996,0 v -11.04997 h -4e-5 3.19985 v 3.9 h 13.50014 v -3.9 h 8.8499 v -13.00024"
       id="path4690-9-5"
       inkscape:connector-curvature="0"
       sodipodi:nodetypes="ccccccccccccccccccccccccccccccccccccccccccccccccccccc" />
    <path
       style="fill:none;fill-opacity:0.22429905;stroke:#000000;stroke-width:0.05;stroke-miterlimit:4;stroke-dasharray:none;stroke-opacity:1"
       d="m -407.52779,226.14638 h -13.49996 m 0,0 v 11.04997 h 4e-5 -3.19985 v -3.9 h -13.50015 v 3.9 h -8.8499 v 13.00024 h 214.95019 v -13.00024 h -8.37572 l -5.3e-4,-3.9 h -14.02393 l 1e-4,3.9 h -3.1999 v -11.04997 h -13.50047 v 11.04997 h -3.19982 v -11.04997 h -13.49995 v 11.04997 h -3.1998 v -11.04997 h -13.49995 v 11.04997 h -3.20032 v -11.04997 h -13.49995 v 11.04997 h -3.19981 v -11.04997 h -13.49994 v 11.04997 h -3.20032 v -11.04997 h -13.49996 v 11.04997 h -3.19981 v -11.04997 h -13.49994 v 11.04997 h -3.20033 v -11.04997 h -13.49994 v 11.04997 h -3.19981 v -11.04997 h -13.49996 v 11.04997 h -3.20031 v -11.04997"
       id="path4690-8-4-5"
       inkscape:connector-curvature="0"
       sodipodi:nodetypes="ccccccccccccccccccccccccccccccccccccccccccccccccccccccc" />
    <path
       style="fill:none;fill-opacity:0.22429905;stroke:#000000;stroke-width:0.05;stroke-miterlimit:4;stroke-dasharray:none;stroke-opacity:1"
       d="m -407.52727,226.14638 v -11.04997 h 3.19981 v 11.04997 m 13.49994,0 v -11.04997 h 3.1998 v 11.04997 m 13.49995,0 v -11.04997 h 3.20032 v 11.04997 m 13.49995,0 v -11.04997 h 3.1998 v 11.04997 m 13.49995,0 v -11.04997 h 3.20032 v 11.04997 m 13.49996,0 v -11.04997 h 3.19981 v 11.04997 m 13.49994,0 v -11.04997 h 3.20033 v 11.04997 m 13.49994,0 v -11.04997 h 3.19981 v 11.04997 m 13.49996,0 v -11.04997 h 3.20031 v 11.04997 m 13.49996,0 v -11.04997 h -4e-5 3.19985 v 3.9 h 13.50014 v -3.9 h 8.8499 v -13.00024 h -214.95019 v 13.00024 h 8.37572 l 6.3e-4,3.9 h 14.02396 l -1.1e-4,-3.9 h 3.1998 v 11.04997"
       id="path4690-0-9"
       inkscape:connector-curvature="0"
       sodipodi:nodetypes="ccccccccccccccccccccccccccccccccccccccccccccccccccccc" />
    <path
       style="fill:none;fill-opacity:0.22429905;stroke:#000000;stroke-width:0.05;stroke-miterlimit:4;stroke-dasharray:none;stroke-opacity:1"
       d="m -231.67756,202.09617 v -13.00024 h -8.37572 l -5.3e-4,-3.9 h -14.02394 l 1.1e-4,3.9 h -3.19991 v -11.04997 h -13.50047 v 11.04997 h -3.19981 v -11.04997 h -13.49995 v 11.04997 h -3.1998 v -11.04997 h -13.49995 v 11.04997 h -3.20032 v -11.04997 h -13.49995 v 11.04997 h -3.19981 v -11.04997 h -13.49994 v 11.04997 h -3.20032 v -11.04997 h -13.49996 v 11.04997 h -3.19981 v -11.04997 h -13.49994 v 11.04997 h -3.20033 v -11.04997 h -13.49994 v 11.04997 h -3.19981 v -11.04997 h -13.49996 v 11.04997 h -3.20031 v -11.04997 h -13.49996 v 11.04997 h 4e-5 -3.19985 v -3.9 h -13.50015 v 3.9 h -8.8499 v 13.00024"
       id="path4690-8-7-7"
       inkscape:connector-curvature="0"
       sodipodi:nodetypes="ccccccccccccccccccccccccccccccccccccccccccccccccccccc" />
    <path
       style="fill:none;fill-opacity:0.22429905;stroke:#000000;stroke-width:0.05;stroke-miterlimit:4;stroke-dasharray:none;stroke-opacity:1"
       d="m -407.5774,178.04596 v -11.04997 h 3.19981 v 11.04997 m 13.49994,0 v -11.04997 h 3.1998 v 11.04997 m 13.49995,0 v -11.04997 h 3.20032 v 11.04997 m 13.49995,0 v -11.04997 h 3.1998 v 11.04997 m 13.49995,0 v -11.04997 h 3.20032 v 11.04997 m 13.49996,0 v -11.04997 h 3.19981 v 11.04997 m 13.49994,0 v -11.04997 h 3.20033 v 11.04997 m 13.49994,0 v -11.04997 h 3.19981 v 11.04997 m 13.49996,0 v -11.04997 h 3.20031 v 11.04997 m 13.49996,0 v -11.04997 h -4e-5 3.19985 v 3.9 h 13.50014 v -3.9 h 8.8499 v -13.00024 h -214.95019 v 13.00024 h 8.37572 l 6.4e-4,3.9 h 14.02395 l -1.1e-4,-3.9 h 3.19981 v 11.04997"
       id="path4690-09-1"
       inkscape:connector-curvature="0"
       sodipodi:nodetypes="ccccccccccccccccccccccccccccccccccccccccccccccccccccc" />
    <path
       style="fill:none;fill-opacity:0.22429905;stroke:#000000;stroke-width:0.05;stroke-miterlimit:4;stroke-dasharray:none;stroke-opacity:1"
       d="m -231.72769,153.99575 v -13.00024 h -8.37572 l -5.3e-4,-3.9 h -14.02394 l 1.1e-4,3.9 h -3.19991 v -11.04997 h -13.50047 v 11.04997 h -3.19981 v -11.04997 h -13.49995 v 11.04997 h -3.1998 v -11.04997 h -13.49995 v 11.04997 h -3.20031 v -11.04997 h -13.49996 v 11.04997 h -3.19981 v -11.04997 h -13.49994 v 11.04997 h -3.20032 v -11.04997 h -13.49996 v 11.04997 h -3.19981 v -11.04997 h -13.49994 v 11.04997 h -3.20033 v -11.04997 h -13.49994 v 11.04997 h -3.19981 v -11.04997 h -13.49996 v 11.04997 h -3.20031 v -11.04997 h -13.49996 v 11.04997 h 4e-5 -3.19985 v -3.9 h -13.50015 v 3.9 h -8.8499 v 13.00024"
       id="path4690-8-75-9"
       inkscape:connector-curvature="0"
       sodipodi:nodetypes="ccccccccccccccccccccccccccccccccccccccccccccccccccccc" />
    <path
       style="fill:none;fill-opacity:0.22429905;stroke:#000000;stroke-width:0.05;stroke-miterlimit:4;stroke-dasharray:none;stroke-opacity:1"
       d="m -407.62754,129.94554 v -11.04996 h 3.19981 v 11.04996 m 13.49995,0 v -11.04996 h 3.19979 v 11.04996 m 13.49995,0 v -11.04996 h 3.20032 v 11.04996 m 13.49995,0 v -11.04996 h 3.19981 v 11.04996 m 13.49995,0 v -11.04996 h 3.20032 v 11.04996 m 13.49996,0 v -11.04996 h 3.19981 v 11.04996 m 13.49994,0 v -11.04996 h 3.20033 v 11.04996 m 13.49993,0 v -11.04996 h 3.19981 v 11.04996 m 13.49996,0 v -11.04996 h 3.20031 v 11.04996 m 13.49996,0 v -11.04996 h -4e-5 3.19985 v 3.9 h 13.50014 v -3.9 h 8.8499 v -13.00024 h -214.95018 v 13.00024 h 8.37572 l 6.4e-4,3.9 h 14.02395 l -1.1e-4,-3.9 h 3.1998 v 11.04996"
       id="path4690-2-2"
       inkscape:connector-curvature="0"
       sodipodi:nodetypes="ccccccccccccccccccccccccccccccccccccccccccccccccccccc" />
    <path
       style="fill:none;fill-opacity:0.22429905;stroke:#000000;stroke-width:0.05;stroke-miterlimit:4;stroke-dasharray:none;stroke-opacity:1"
       d="M -231.77782,105.89534 V 92.895096 h -8.37572 l -5.3e-4,-3.9 h -14.02394 l 1.1e-4,3.9 h -3.19991 v -11.04997 m -13.50047,0 v 11.04997 h -3.19981 v -11.04997 m -13.49995,0 v 11.04997 h -3.1998 v -11.04997 m -13.49995,0 v 11.04997 h -3.20032 v -11.04997 m -13.49995,0 v 11.04997 h -3.19981 v -11.04997 m -13.49994,0 v 11.04997 h -3.20032 v -11.04997 m -13.49996,0 v 11.04997 h -3.19981 v -11.04997 m -13.49994,0 v 11.04997 h -3.20033 v -11.04997 m -13.49994,0 v 11.04997 h -3.19981 v -11.04997 m -13.49996,0 v 11.04997 h -3.20031 v -11.04997 m -13.49996,0 v 11.04997 h 4e-5 -3.19985 v -3.9 h -13.50015 v 3.9 h -8.8499 v 13.000244"
       id="path4690-8-79-9"
       inkscape:connector-curvature="0"
       sodipodi:nodetypes="ccccccccccccccccccccccccccccccccccccccccccccccccccccc" />
    <path
       style="fill:none;fill-opacity:0.22429905;stroke:#000000;stroke-width:0.05;stroke-miterlimit:4;stroke-dasharray:none;stroke-opacity:1"
       d="m -446.77813,57.794916 v 13.00024 h 8.37572 l 6.4e-4,3.9 h 14.02395 l -1.1e-4,-3.9 h 3.1998 v 11.04997 h 13.50047 v -11.04997 h 3.19981 v 11.04997 h 13.49995 v -11.04997 h 3.1998 v 11.04997 h 13.49995 v -11.04997 h 3.20032 v 11.04997 h 13.49995 v -11.04997 h 3.1998 v 11.04997 h 13.49995 v -11.04997 h 3.20032 v 11.04997 h 13.49996 v -11.04997 h 3.19981 v 11.04997 h 13.49994 v -11.04997 h 3.20033 v 11.04997 h 13.49994 v -11.04997 h 3.19981 v 11.04997 h 13.49996 v -11.04997 h 3.20031 v 11.04997 h 13.49996 v -11.04997 h -4e-5 3.19985 v 3.9 h 13.50014 v -3.9 h 8.8499 v -13.00024 z"
       id="path4690-4-6"
       inkscape:connector-curvature="0"
       sodipodi:nodetypes="cccccccccccccccccccccccccccccccccccccccccccccccccccccc" />
    <path
       style="opacity:1;fill:none;fill-opacity:0.22429905;stroke:#000000;stroke-width:0.18897638;stroke-miterlimit:4;stroke-dasharray:none;stroke-opacity:1"
       d="m -778.0332,1155.7578 v 18.8984 h -81.16407 l -1.0664,79.3692 h 85.63086 v -49.1328 h 12.09375 v 49.1328 h 51.02344 v -49.1328 h 12.0957 v 49.1328 h 51.02344 v -49.1328 h 12.09375 v 49.1328 h 51.02343 v -49.1328 h 12.09571 v 49.1328 h 51.02343 v -49.1328 h 12.09375 v 49.1328 h 51.02344 v -49.1328 h 12.0957 v 49.1328 h 51.02344 v -49.1328 h 12.09375 v 49.1328 h 51.02344 v -49.1328 h 12.0957 v 49.1328 h 51.02344 v -49.1328 h 12.09375 v 49.1328 h 51.02344 v -49.1328 h 12.0957 v 49.1328 h 51.02344 l 0.002,-49.1328 h 12.0918 v 49.1328 h 84.570311 v -79.3692 h -84.570311 v -19.6542"
       transform="scale(0.26458333)"
       id="path4612-6-41"
       inkscape:connector-curvature="0"
       sodipodi:nodetypes="cccccccccccccccccccccccccccccccccccccccccccccccccccc" />
    <path
       style="opacity:1;fill:none;fill-opacity:0.22429905;stroke:#000000;stroke-width:0.05;stroke-miterlimit:4;stroke-dasharray:none;stroke-opacity:1"
       d="m -205.85482,305.79448 171.10003,-0.20004 m 0,0 v -5.00021 h 21.47445 V 279.594 m -22.37434,0 v 13.00021 h -3.19981 v -12.99973 m -13.49996,0 v 12.99973 h -3.20032 v -12.99973 m -13.49997,0 v 12.99973 h -3.19981 v -12.99973 m -13.49996,0 v 12.99973 h -3.20031 v -12.99973 m -13.49995,0 v 12.99973 h -3.19982 v -12.99973 m -13.49995,0 v 12.99973 h -3.20033 v -12.99973 m -13.49994,0 v 12.99973 h -3.1998 v -12.99973 m -13.49994,0 v 12.99973 h -3.20032 v -12.99973 m -13.49995,0 v 12.99973 h -3.19981 v -12.99973 m -13.49996,0 v 12.99973 h -3.20031 v -12.99973 m -13.49996,-4.8e-4 -5.3e-4,13.00021 h -3.19928 l -1.5e-4,-13.00021 m -22.37573,0 v 21.00023 l 22.37573,2.5e-4 v 5.2"
       id="path4612-6-9-1"
       inkscape:connector-curvature="0"
       sodipodi:nodetypes="cccccccccccccccccccccccccccccccccccccccccccccccccccccc" />
    <path
       style="opacity:1;fill:none;fill-opacity:0.22429905;stroke:#000000;stroke-width:0.18897638;stroke-miterlimit:4;stroke-dasharray:none;stroke-opacity:1"
       d="m -781.43359,958.4668 v 18.89843 h -81.16407 v 79.36717 h 84.56446 v -49.1308 h 12.09375 v 49.1308 0 h 51.02343 v -0 -49.1308 h 12.09571 v 49.1308 0 h 51.02343 v -0 -49.1308 h 12.09376 v 49.1308 0 h 51.02343 v -0 -49.1308 h 12.09571 v 49.1308 0 h 51.02343 v -0 -49.1308 h 12.09375 v 49.1308 0 h 51.02344 v -0 -49.1308 h 12.0957 v 49.1308 0 h 51.02344 v -0 -49.1308 h 12.09375 v 49.1308 0 h 51.02344 v -0 -49.1308 h 12.0957 v 49.1308 0 h 51.02344 v -0 -49.1308 h 12.09375 v 49.1308 0 h 51.02344 v -0 -49.1308 h 12.0957 v 49.1308 0 h 51.02344 v -0 l 0.002,-49.1308 h 12.0918 v 49.1308 h 84.57031 v -79.36717 h -84.57031 v -19.65429"
       transform="scale(0.26458333)"
       id="path4612-6-4-9"
       inkscape:connector-curvature="0"
       sodipodi:nodetypes="cccccccccccccccccccccccccccccccccccccccccccccccccccccccccccccccccccccccc" />
    <path
       style="opacity:1;fill:none;fill-opacity:0.22429905;stroke:#000000;stroke-width:0.05;stroke-miterlimit:4;stroke-dasharray:none;stroke-opacity:1"
       d="m -229.13029,227.395 0,20.99927 22.37573,2.5e-4 0,5.2 171.10003,-0.20004 0,-5.00021 21.47445,0 0,-20.99927 -22.37434,0 0,12.99925 -3.19981,0 0,-12.99973 -13.49996,0 0,12.99973 -3.20032,0 0,-12.99973 -13.49997,0 0,12.99973 -3.19981,0 0,-12.99973 -13.49996,0 0,12.99973 -3.20031,0 0,-12.99973 -13.49996,0 0,12.99973 -3.19981,0 0,-12.99973 -13.49995,0 0,12.99973 -3.20033,0 0,-12.99973 -13.49993,0 0,12.99973 -3.19981,0 0,-12.99973 -13.49993,0 0,12.99973 -3.20033,0 0,-12.99973 -13.49994,0 0,12.99973 -3.19981,0 0,-12.99973 -13.49996,0 0,12.99973 -3.20031,0 0,-12.99973 -13.49997,4.8e-4 -5.3e-4,12.99925 -3.19928,0 -1.5e-4,-12.99925 z"
       id="path4612-6-9-4-0"
       inkscape:connector-curvature="0"
       sodipodi:nodetypes="ccccccccccccccccccccccccccccccccccccccccccccccccccccc" />
    <path
       style="opacity:1;fill:none;fill-opacity:0.22429905;stroke:#000000;stroke-width:0.18897638;stroke-miterlimit:4;stroke-dasharray:none;stroke-opacity:1"
       d="m -784.83594,761.17578 v 18.89844 h -81.16211 v 79.37109 m 84.56446,0 v -49.13476 h 12.09375 v 49.13281 m 51.02343,0 v -49.13281 h 12.09571 v 49.13281 m 51.02343,0 v -49.13281 h 12.09375 v 49.13281 m 51.02344,0 v -49.13281 h 12.0957 v 49.13281 m 51.02344,0 v -49.13281 h 12.09375 v 49.13281 m 51.02344,0 v -49.13281 h 12.0957 v 49.13281 m 51.02344,0 v -49.13281 h 12.09375 v 49.13281 m 51.02344,0 v -49.13281 h 12.0957 v 49.13281 m 51.02344,0 v -49.13281 h 12.09375 v 49.13281 m 51.02344,0 v -49.13281 h 12.0957 v 49.13281 m 51.02344,0 0.002,-49.13281 h 12.0918 v 49.13476 m 84.570309,0 V 780.07422 H -138.1582 v -19.6543"
       transform="scale(0.26458333)"
       id="path4612-6-1-5"
       inkscape:connector-curvature="0"
       sodipodi:nodetypes="cccccccccccccccccccccccccccccccccccccccccccccccccccc" />
    <path
       style="opacity:1;fill:none;fill-opacity:0.22429905;stroke:#000000;stroke-width:0.05;stroke-miterlimit:4;stroke-dasharray:none;stroke-opacity:1"
       d="m -15.07982,175.195 -22.37434,0 m 0,0 0,12.99929 -3.19981,0 0,-12.99929 -13.49996,-4.4e-4 0,12.99973 -3.20032,0 0,-12.99973 -13.49997,0 0,12.99973 -3.19981,0 0,-12.99973 -13.49996,0 0,12.99973 -3.2003,0 0,-12.99973 -13.49997,0 0,12.99973 -3.19981,0 0,-12.99973 -13.49995,0 0,12.99973 -3.20033,0 0,-12.99973 -13.49993,0 0,12.99973 -3.19981,0 0,-12.99973 -13.49993,0 0,12.99973 -3.20033,0 0,-12.99973 -13.49994,0 0,12.99973 -3.19981,0 0,-12.99973 -13.49996,0 0,12.99973 -3.20031,0 0,-12.99973 -13.49997,0 -5.3e-4,12.99973 -3.19928,0 -1.5e-4,-12.99929 m 0,0 -22.37573,0 m 0,0 0,20.99931 22.37573,2.5e-4 0,5.2 171.10003,-0.20004 0,-5.00021 21.47445,0 0,-20.99931"
       id="path4612-6-9-7-8"
       inkscape:connector-curvature="0"
       sodipodi:nodetypes="cccccccccccccccccccccccccccccccccccccccccccccccccccccccc" />
    <path
       style="opacity:1;fill:none;fill-opacity:0.22429905;stroke:#000000;stroke-width:0.05;stroke-miterlimit:4;stroke-dasharray:none;stroke-opacity:1"
       d="m -208.55402,149.1946 v 5.00021 h -21.47444 V 175.195 m 22.37433,0 v -13.00017 h 3.19981 v 12.99973 m 13.49995,0 v -12.99973 h 3.20032 v 12.99973 m 13.49996,0 v -12.99973 h 3.19981 v 12.99973 m 13.49995,0 v -12.99973 h 3.20032 v 12.99973 m 13.49994,0 v -12.99973 h 3.19981 v 12.99973 m 13.49994,0 v -12.99973 h 3.20033 v 12.99973 m 13.49994,0 v -12.99973 h 3.1998 v 12.99973 m 13.49997,0 v -12.99973 h 3.2003 v 12.99973 m 13.49996,0 v -12.99973 h 3.19981 v 12.99973 m 13.49996,0 v -12.99973 h 3.20032 v 12.99973 m 13.49996,0 5.3e-4,-12.99973 h 3.19927 l 1.6e-4,13.00017 m 22.37575,0 v -21.00019 l -22.37574,-2.5e-4 v -5.2"
       id="path4612-6-2-0"
       inkscape:connector-curvature="0"
       sodipodi:nodetypes="cccccccccccccccccccccccccccccccccccccccccccccccccccc" />
    <path
       style="opacity:1;fill:none;fill-opacity:0.22429905;stroke:#000000;stroke-width:0.05;stroke-miterlimit:4;stroke-dasharray:none;stroke-opacity:1"
       d="m -230.92975,122.995 0,20.99935 22.37573,2.5e-4 0,5.2 171.10002,-0.20004 0,-5.00021 21.47445,0 0,-20.99935 -22.37434,0 0,12.99933 -3.19981,0 0,-12.99933 -13.49996,-4e-4 0,12.99973 -3.20032,0 0,-12.99973 -13.49997,0 0,12.99973 -3.19981,0 0,-12.99973 -13.49995,0 0,12.99973 -3.20031,0 0,-12.99973 -13.49997,0 0,12.99973 -3.19981,0 0,-12.99973 -13.49995,0 0,12.99973 -3.20033,0 0,-12.99973 -13.49993,0 0,12.99973 -3.19981,0 0,-12.99973 -13.49993,0 0,12.99973 -3.20032,0 0,-12.99973 -13.49995,0 0,12.99973 -3.19981,0 0,-12.99973 -13.49996,0 0,12.99973 -3.20031,0 0,-12.99973 -13.49996,0 -5.3e-4,12.99973 -3.19928,0 -1.5e-4,-12.99933 m 0,0 -22.37573,0"
       id="path4612-6-9-9-2"
       inkscape:connector-curvature="0"
       sodipodi:nodetypes="cccccccccccccccccccccccccccccccccccccccccccccccccccccc" />
    <path
       style="opacity:1;fill:none;fill-opacity:0.22429905;stroke:#000000;stroke-width:0.05;stroke-miterlimit:4;stroke-dasharray:none;stroke-opacity:1"
       d="m -15.97799,122.995 v -21.00015 l -22.37574,-2.5e-4 v -5.199991 m -171.10003,0.20004 v 5.000201 H -230.9282 V 122.995 m 22.37433,0 v -13.00013 h 3.19981 v 12.99973 m 13.49995,0 v -12.99973 h 3.20032 v 12.99973 m 13.49996,0 v -12.99973 h 3.19981 v 12.99973 m 13.49995,0 v -12.99973 h 3.20032 v 12.99973 m 13.49995,0 v -12.99973 h 3.19981 v 12.99973 m 13.49994,0 v -12.99973 h 3.20033 v 12.99973 m 13.49994,0 v -12.99973 h 3.1998 v 12.99973 m 13.49997,0 v -12.99973 h 3.20031 v 12.99973 m 13.49995,0 v -12.99973 h 3.19981 v 12.99973 m 13.49996,0 v -12.99973 h 3.20032 v 12.99973 m 13.49996,0 5.3e-4,-12.99973 h 3.19928 l 1.6e-4,13.00013"
       id="path4612-6-8-2"
       inkscape:connector-curvature="0"
       sodipodi:nodetypes="cccccccccccccccccccccccccccccccccccccccccccccccccccc" />
    <path
       style="opacity:1;fill:none;fill-opacity:0.22429905;stroke:#000000;stroke-width:0.05;stroke-miterlimit:4;stroke-dasharray:none;stroke-opacity:1"
       d="m -16.87928,70.795 -22.656562,0 m 0,0 0.282222,12.999376 -3.19981,0 0,-12.999376 -13.49996,-3.54e-4 0,12.99973 -3.20032,0 0,-12.99973 -13.49997,0 0,12.99973 -3.19981,0 0,-12.99973 -13.49995,0 0,12.99973 -3.20031,0 0,-12.99973 -13.49997,0 0,12.99973 -3.19981,0 0,-12.99973 -13.49995,0 0,12.99973 -3.20033,0 0,-12.99973 -13.49994,0 0,12.99973 -3.1998,0 0,-12.99973 -13.49994,0 0,12.99973 -3.20032,0 0,-12.99973 -13.49995,0 0,12.99973 -3.19981,0 0,-12.99973 -13.49996,0 0,12.99973 -3.20031,0 0,-12.99973 -13.49996,0 -5.3e-4,12.99973 -3.19928,0 -1.5e-4,-12.999376 m 0,0 -22.37573,0 m 0,0 0,20.999396 22.37573,2.5e-4 0,5.200003 171.10003,-0.20004 0,-5.000213 21.47445,0 0,-20.999396"
       id="path4612-6-9-0-1"
       inkscape:connector-curvature="0"
       sodipodi:nodetypes="cccccccccccccccccccccccccccccccccccccccccccccccccccccccc" />
    <path
       style="opacity:1;fill:none;fill-opacity:0.22429905;stroke:#000000;stroke-width:0.05;stroke-miterlimit:4;stroke-dasharray:none;stroke-opacity:1"
       d="M -209.45361,70.795 V 57.794916 h 3.19981 v 12.99973 m 13.49995,0 v -12.99973 h 3.20032 v 12.99973 m 13.49996,0 v -12.99973 h 3.19981 v 12.99973 m 13.49995,0 v -12.99973 h 3.20032 v 12.99973 m 13.49995,0 v -12.99973 h 3.19981 v 12.99973 m 13.49994,0 v -12.99973 h 3.20033 v 12.99973 m 13.49994,0 v -12.99973 h 3.1998 v 12.99973 m 13.49997,0 v -12.99973 h 3.20031 v 12.99973 m 13.49995,0 v -12.99973 h 3.19981 v 12.99973 m 13.49996,0 v -12.99973 h 3.20032 v 12.99973 m 13.49996,0 5.3e-4,-12.99973 h 3.19928 l 1.6e-4,13.000084 m 22.37574,0 V 49.794896 l -22.37574,-2.5e-4 v -5.2 l -171.10003,0.20004 v 5.00021 h -21.47444 V 70.795"
       id="path4612-6-0-8"
       inkscape:connector-curvature="0"
       sodipodi:nodetypes="cccccccccccccccccccccccccccccccccccccccccccccccccccc" />
  </g>
</svg>
